<svg xmlns="http://www.w3.org/2000/svg" width="357" height="34" viewBox="0 0 357 34" fill="none">
<path d="M1.08 22.936C0.984 26.008 2.296 27.48 4.28 27.48C6.072 27.48 7.32 26.808 8.92 24.12L19.768 5.944C21.08 3.736 23.512 5.304 22.68 7.384L17.912 19.288C16.408 23.064 16.024 27.48 20.184 27.48C22.104 27.48 24.184 26.36 24.312 22.712L24.792 9.336C24.952 4.568 23.128 2.2 19.192 2.2C15.8 2.2 13.72 3.704 12.76 7.384L9.528 19.672C9.048 21.496 7.16 21.592 6.36 19.992L3.384 14.104C2.648 12.664 2.84 11.448 3.992 10.808L7.8 8.696C11.256 6.776 10.52 2.2 6.424 2.2C2.008 2.2 1.592 6.584 1.528 8.568L1.08 22.936ZM42.0743 11.864C42.9383 5.912 39.8023 2.2 34.7463 2.2C30.7143 2.2 29.0823 4.312 29.0503 12.056L28.9863 22.712C28.9543 26.36 31.0663 27.48 32.8583 27.48C35.5463 27.48 36.3783 25.4 36.3783 23.768C36.3783 22.392 35.6743 20.376 35.3223 19.128L31.7063 6.36C30.9703 3.704 34.3623 2.776 35.2263 5.624L40.2823 22.328C41.2423 25.528 42.2663 27.48 44.4103 27.48C45.8823 27.48 47.0663 26.424 48.7943 22.968L52.5063 15.608C53.4663 13.688 54.1383 10.808 53.7223 8.152L53.4343 6.328C53.1783 4.696 54.4903 3.864 55.9623 3.864C57.7543 3.864 58.8103 5.208 58.8103 7.032C58.8103 7.928 58.3943 9.368 58.1063 10.072L53.6903 20.92C52.3463 24.216 53.0183 27.48 56.4743 27.48C60.6663 27.48 61.1783 23.256 61.1783 18.616V11.864C61.1783 4.664 59.0343 2.168 55.3223 2.168C52.7943 2.168 50.6823 3.448 49.3063 6.776L44.1223 19.352C43.6423 20.536 43.0023 20.92 42.3943 20.92C41.3703 20.92 40.8903 19.896 41.2423 17.56L42.0743 11.864ZM69.33 19.736C66.514 19.8 64.21 20.856 64.21 23.416C64.21 26.424 66.29 27.48 68.146 27.48C70.77 27.48 73.138 25.112 74.61 23.864L77.746 21.176C78.866 20.216 79.794 20.44 79.794 22.2V23.864C79.794 25.816 81.042 27.48 83.666 27.48C86.962 27.48 88.05 24.728 87.378 21.144L84.466 5.752C84.05 3.576 82.738 2.2 80.818 2.2C78.738 2.2 77.586 3.032 74.802 5.24L68.37 10.36C66.898 11.544 65.938 12.792 65.938 14.168C65.938 16.152 67.474 17.72 69.362 17.72C70.546 17.72 72.338 17.304 73.362 15.192L77.234 7.256C77.714 6.264 78.866 3.832 80.21 3.576C81.554 3.32 82.418 4.44 82.194 6.2L80.818 17.528C80.626 19.16 79.41 19.512 77.586 19.544L69.33 19.736ZM89.7398 28.504C89.9958 32.248 91.2118 33.4 93.6438 33.4C96.7798 33.4 97.4198 29.72 94.7638 28.312L91.6278 26.648C90.2198 25.912 91.3078 23.8 92.8118 24.6L95.3078 25.944C96.4598 26.584 98.2517 27 100.012 27H112.012C113.484 27 114.54 26.648 115.308 26.232L118.444 24.504C120.012 23.64 121.036 25.784 119.788 26.52L117.004 28.184C114.316 29.784 115.212 33.4 117.996 33.4C120.3 33.4 121.676 32.248 121.676 28.504V20.536C121.676 18.136 120.3 16.856 118.828 16.856C117.516 16.856 116.364 17.688 115.692 19.416L113.932 23.864C113.228 25.624 110.828 24.6 111.468 22.968L116.748 9.624C118.252 5.848 116.94 2.68 112.972 2.68H102.22C98.9238 2.68 96.8438 4.632 97.1318 8.76L98.1558 22.904C98.2838 24.696 95.8518 24.728 95.7238 23.096L95.4998 19.928C95.3398 17.592 93.7718 16.472 92.2358 16.472C90.6038 16.472 88.9718 17.816 89.1638 20.344L89.7398 28.504ZM105.9 5.56C107.244 3.096 110.252 3.8 110.22 6.52L109.964 23.064C109.932 24.824 108.428 25.528 106.956 24.632L100.876 20.856C99.0198 19.704 98.8918 18.456 99.9158 16.568L105.9 5.56ZM123.745 5.784C123.745 7.96 124.705 9.496 126.529 11.288L133.953 18.648C134.721 19.416 134.337 20.28 133.409 20.28H128.513C125.537 20.28 124.065 21.784 124.065 23.992C124.065 25.944 125.633 27.48 128.513 27.48C131.969 27.48 134.497 25.4 135.649 20.504L137.441 12.984C137.793 11.512 139.681 11.8 139.681 13.272L139.649 23.224C139.649 26.072 140.929 27.48 143.361 27.48C146.817 27.48 147.553 24.28 145.473 21.816L144.961 21.208C144.033 20.12 143.489 19.064 144.033 18.264C144.769 17.208 145.953 17.464 147.617 18.968L154.433 25.08C156.545 27 157.729 27.48 159.489 27.48C161.633 27.48 162.945 25.432 162.625 23.512C162.241 21.272 160.897 20.408 157.985 19.736L149.505 17.816C147.777 17.432 146.433 16.984 146.305 16.024C146.209 15.288 146.497 14.776 147.585 14.168L157.025 8.952C158.113 8.344 159.041 9.4 158.753 10.328L157.569 14.2C157.121 15.672 158.017 16.472 159.009 16.536C160.097 16.568 161.313 15.768 161.057 13.976L159.905 5.976C159.521 3.352 158.017 2.2 155.969 2.2C153.921 2.2 152.961 3.288 151.201 5.72L143.425 16.472C142.369 17.944 140.609 16.632 141.505 15.16L145.313 8.792C145.889 7.832 146.465 6.84 146.465 5.496C146.465 3.64 144.897 2.2 143.073 2.2C141.121 2.2 139.873 3.416 138.145 6.904L134.433 14.424C133.633 16.056 131.809 15.8 131.809 13.784V7.384C131.809 3.608 129.825 2.2 127.521 2.2C125.281 2.2 123.745 3.672 123.745 5.784ZM189.293 6.744C189.389 3.672 188.077 2.2 186.093 2.2C184.301 2.2 183.053 2.872 181.453 5.56L170.605 23.736C169.293 25.944 166.861 24.376 167.693 22.296L172.461 10.392C173.965 6.616 174.349 2.2 170.189 2.2C168.269 2.2 166.189 3.32 166.061 6.968L165.581 20.344C165.421 25.112 167.245 27.48 171.181 27.48C174.573 27.48 176.653 25.976 177.613 22.296L180.845 10.008C181.325 8.184 183.213 8.088 184.013 9.688L186.989 15.576C187.725 17.016 187.533 18.232 186.381 18.872L182.573 20.984C179.117 22.904 179.853 27.48 183.949 27.48C188.365 27.48 188.781 23.096 188.845 21.112L189.293 6.744ZM213.807 2.2C211.215 2.2 210.031 3.608 210.031 5.368C210.031 6.36 210.607 7.384 211.599 8.536L212.975 10.104C213.583 10.776 214.223 11.16 213.999 12.216C213.807 13.144 213.103 13.464 211.791 13.464H198.191C197.103 13.464 196.335 13.016 196.335 12.152C196.335 11.544 196.495 11.064 197.455 10.52L201.103 8.44C202.223 7.8 203.023 6.584 203.023 5.144C203.023 3.416 201.775 2.2 199.599 2.2C196.175 2.2 195.279 5.24 195.023 7.544L193.327 23.32C193.007 26.36 194.735 27.48 196.559 27.48C198.479 27.48 200.335 26.04 200.335 24.184C200.335 23.16 199.791 22.008 198.767 20.888C197.967 20.024 197.103 19.448 197.103 18.68C197.103 18.2 197.359 17.848 198.767 17.56L210.927 15.16C212.015 14.904 213.167 14.968 213.167 15.864C213.167 16.376 212.911 17.112 212.207 17.752L209.231 20.568C207.727 21.976 207.471 23.16 207.471 24.184C207.471 25.816 208.623 27.48 210.767 27.48C214.191 27.48 214.991 25.4 215.247 23.096L217.167 5.304C217.359 3.384 215.631 2.2 213.807 2.2ZM224.549 19.736C221.733 19.8 219.429 20.856 219.429 23.416C219.429 26.424 221.509 27.48 223.365 27.48C225.989 27.48 228.357 25.112 229.829 23.864L232.965 21.176C234.085 20.216 235.013 20.44 235.013 22.2V23.864C235.013 25.816 236.261 27.48 238.885 27.48C242.181 27.48 243.269 24.728 242.597 21.144L239.685 5.752C239.269 3.576 237.957 2.2 236.037 2.2C233.957 2.2 232.805 3.032 230.021 5.24L223.589 10.36C222.117 11.544 221.157 12.792 221.157 14.168C221.157 16.152 222.693 17.72 224.581 17.72C225.765 17.72 227.557 17.304 228.581 15.192L232.453 7.256C232.933 6.264 234.085 3.832 235.429 3.576C236.773 3.32 237.637 4.44 237.413 6.2L236.037 17.528C235.845 19.16 234.629 19.512 232.805 19.544L224.549 19.736ZM252.255 2.68C248.095 2.68 246.143 5.336 246.143 8.92V22.712C246.143 26.744 248.159 27.48 250.367 27.48C252.831 27.48 254.207 26.52 254.207 24.28C254.207 22.712 253.663 21.496 252.351 19.992L248.415 15.576C247.583 14.648 247.423 13.24 248.286 12.28C249.279 11.192 250.783 11.256 251.583 12.28L255.263 17.112C257.407 19.928 259.295 21.048 262.047 21.048C266.879 21.048 268.895 17.432 268.895 12.632C268.895 6.136 265.791 2.68 258.783 2.68H252.255ZM250.847 9.304C250.847 8.632 251.359 8.312 252.191 7.96L258.111 5.528C259.839 4.824 260.415 4.984 261.567 6.616L266.431 13.592C268.095 15.96 266.303 18.008 263.071 16.376L251.967 10.744C251.167 10.328 250.847 9.848 250.847 9.304ZM295.668 6.744C295.764 3.672 294.452 2.2 292.468 2.2C290.676 2.2 289.428 2.872 287.828 5.56L276.98 23.736C275.668 25.944 273.236 24.376 274.068 22.296L278.836 10.392C280.34 6.616 280.724 2.2 276.564 2.2C274.644 2.2 272.564 3.32 272.436 6.968L271.956 20.344C271.796 25.112 273.62 27.48 277.556 27.48C280.948 27.48 283.028 25.976 283.988 22.296L287.22 10.008C287.7 8.184 289.588 8.088 290.388 9.688L293.364 15.576C294.1 17.016 293.908 18.232 292.756 18.872L288.948 20.984C285.492 22.904 286.228 27.48 290.324 27.48C294.74 27.48 295.156 23.096 295.22 21.112L295.668 6.744ZM315.446 13.976C315.478 15 314.806 16.12 313.59 14.392L307.158 5.112C305.75 3.096 304.886 2.2 303.062 2.2C298.39 2.2 297.75 9.144 298.902 12.184C299.254 13.112 300.086 13.464 300.534 13.304C301.558 12.952 302.006 12.056 301.398 10.456L299.958 6.712C299.51 5.528 300.662 4.664 301.558 5.848L311.414 19.032C311.894 19.672 312.086 20.632 309.91 20.632H306.902C301.814 20.632 302.358 27.48 307.062 27.48C309.366 27.48 311.222 25.016 312.502 22.904L320.342 10.04C321.238 8.6 322.262 6.904 322.294 5.592C322.39 1.24 315.062 0.952 315.19 5.4L315.446 13.976ZM337.606 11.864C338.47 5.912 335.334 2.2 330.278 2.2C326.246 2.2 324.614 4.312 324.582 12.056L324.518 22.712C324.486 26.36 326.598 27.48 328.39 27.48C331.078 27.48 331.91 25.4 331.91 23.768C331.91 22.392 331.206 20.376 330.854 19.128L327.238 6.36C326.502 3.704 329.894 2.776 330.758 5.624L335.814 22.328C336.774 25.528 337.798 27.48 339.942 27.48C341.414 27.48 342.598 26.424 344.326 22.968L348.038 15.608C348.998 13.688 349.67 10.808 349.254 8.152L348.966 6.328C348.71 4.696 350.022 3.864 351.494 3.864C353.286 3.864 354.342 5.208 354.342 7.032C354.342 7.928 353.926 9.368 353.638 10.072L349.222 20.92C347.878 24.216 348.55 27.48 352.006 27.48C356.198 27.48 356.71 23.256 356.71 18.616V11.864C356.71 4.664 354.566 2.168 350.854 2.168C348.326 2.168 346.214 3.448 344.838 6.776L339.654 19.352C339.174 20.536 338.534 20.92 337.926 20.92C336.902 20.92 336.422 19.896 336.774 17.56L337.606 11.864Z" fill="white"/>
</svg>