<svg xmlns="http://www.w3.org/2000/svg" width="174" height="174" viewBox="0 0 174 174" fill="none">
<path d="M68.7269 10.1478C77.1519 -3.38261 96.8481 -3.38261 105.273 10.1478C110.143 17.9681 119.449 21.8228 128.422 19.7363C143.947 16.1262 157.874 30.0535 154.264 45.5784C152.177 54.5513 156.032 63.8574 163.852 68.7269C177.383 77.1519 177.383 96.8481 163.852 105.273C156.032 110.143 152.177 119.449 154.264 128.422C157.874 143.947 143.947 157.874 128.422 154.264C119.449 152.177 110.143 156.032 105.273 163.852C96.8481 177.383 77.1519 177.383 68.7269 163.852C63.8574 156.032 54.5513 152.177 45.5784 154.264C30.0535 157.874 16.1262 143.947 19.7363 128.422C21.8228 119.449 17.9681 110.143 10.1478 105.273C-3.38261 96.8481 -3.38261 77.1519 10.1478 68.7269C17.9681 63.8574 21.8228 54.5513 19.7363 45.5784C16.1262 30.0535 30.0535 16.1262 45.5784 19.7363C54.5513 21.8228 63.8574 17.9681 68.7269 10.1478Z" fill="#DD5C2A"/>
</svg>